# xmcd
#
# Track frame offsets: 
#        150
#        24175
#        32616
#        46595
#        54561
#        65743
#        82110
#        93005
#        109045
#        119072
#        130898
#        146426
#        156702
#        167552
#        180345
#        190426
#        200391
#        214497
#        224778
#        234113
#        252949
#        259771
#
# Disc length: 3600 seconds
#
# Revision: 0
# Processed by: cddbd v1.5PL3 Copyright (c) Steve Scherf et al.
# Submitted via: ExactAudioCopy v0.95a5
#
DISCID=400e0e16
DTITLE=Various Artist - Время Наших Песен
DYEAR=1998
DGENRE=Other
TTITLE0=ГАРМОШЕЧКА-МАРК МЕРМАН
TTITLE1=ДОЖДИ-ВАДИМ ЕГОРОВ
TTITLE2=ВЫЕЗД-ИГОРЬ ЛУНЬКОВ
TTITLE3=АТЛАНТЫ-АЛЕКСАНДР ГОРОДНИЦКИЙ
TTITLE4=хромой король-александр дулов
TTITLE5=Александра-Татьяна и Сергей Никитины
TTITLE6=Пестни моряков-Борис Вахнюк
TTITLE7=Зеленая карета-Александр Суханов
TTITLE8=Не поговарили-Вадим и Валерий Мишуки
TTITLE9=Разноцветная Москва-Владимир Качан
TTITLE10=Трамвайчик-Леонид Сергеев
TTITLE11=Поезд-Юрий Кукин
TTITLE12=Доктор Оля-Наталья Дудкина
TTITLE13=Монтана-Владимир Турьянский
TTITLE14=Построю дом я...-Виктор Луферов
TTITLE15=Мексиканское танго-Аликсандр Мирзаян
TTITLE16=Мой дедушка старый-Михаил кочетков
TTITLE17=Приходи ко мне Глафира-Алексей Иващенко и Георгий Васильев
TTITLE18=От винтов доносится шум-Игорь Михалев
TTITLE19=О пользе и вреде снобизма-Тимур Шаов
TTITLE20=Губы окаянные-Юлий Ким
TTITLE21=На далекой амазонке-Виктор Берковский
EXTD=
EXTT0=
EXTT1=
EXTT2=
EXTT3=
EXTT4=
EXTT5=
EXTT6=
EXTT7=
EXTT8=
EXTT9=
EXTT10=
EXTT11=
EXTT12=
EXTT13=
EXTT14=
EXTT15=
EXTT16=
EXTT17=
EXTT18=
EXTT19=
EXTT20=
EXTT21=
PLAYORDER=
